
<svg xmlns="http://www.w3.org/2000/svg" viewBox="0 0 800 200">
  <path d="M70 20c-5.52 0-10 4.48-10 10s4.48 10 10 10h60l-40 100h-20c-5.52 0-10 4.48-10 10s4.48 10 10 10h30c4.08 0 7.74-2.46 9.28-6.24L150 50h30c5.52 0 10-4.48 10-10s-4.48-10-10-10h-40c-4.08 0-7.74 2.46-9.28 6.24L110 50H80c-5.52 0-10 4.48-10 10s4.48 10 10 10h20l-10 25-20-50c-1.54-3.78-5.2-6.24-9.28-6.24H30c-5.52 0-10 4.48-10 10s4.48 10 10 10h20l40 100c1.54 3.78 5.2 6.24 9.28 6.24h20c5.52 0 10-4.48 10-10s-4.48-10-10-10H100L70 20z" fill="#F97316"/>
  <path d="M225 39.77v121.46h40V39.77h-40zm60 0v121.46h40v-41.46h60v41.46h40V39.77h-40v40h-60v-40h-40zm160 0v121.46h40v-41.46h20l30 41.46h46l-35.6-49.14c16.78-9.26 29.6-26.22 29.6-46.08 0-29.2-23.68-52.88-52.88-52.88H445v121.46zm40-20h20c5.52 0 10 4.48 10 10s-4.48 10-10 10h-20v-20zm80 20v121.46h100v-20h-60v-30.73h40v-20h-40V59.77h60v-20H525zm110 0v16.77h20v104.69h40V56.54h20v-16.77H635z" fill="#FFFFFF"/>
  <path d="M725 39.77v101.46h40v-80h10v-21.46h-50zm-10 41.46v60h20c16.56 0 30-13.44 30-30s-13.44-30-30-30h-20zm0-41.46v21.46h30c27.6 0 50 22.4 50 50s-22.4 50-50 50h-40v-121.46h10z" fill="#F97316"/>
</svg>
